HIERARCHY
ROOT Hips
{
	OFFSET 49.687801 -10.913917 100.652000
	CHANNELS 6 Xposition Yposition Zposition Xrotation Yrotation Zrotation
	JOINT spine
	{
		OFFSET 0.000000 -0.507026 8.817047
		CHANNELS 3 Xrotation Yrotation Zrotation
		JOINT spine1
		{
			OFFSET 0.000000 -0.000002 10.776604
			CHANNELS 3 Xrotation Yrotation Zrotation
			JOINT spine2
			{
				OFFSET 0.000000 -0.000001 10.325897
				CHANNELS 3 Xrotation Yrotation Zrotation
				JOINT Neck
				{
					OFFSET 0.000000 -1.263955 26.511002
					CHANNELS 3 Xrotation Yrotation Zrotation
					JOINT Head
					{
						OFFSET 0.000000 -0.000001 8.009659
						CHANNELS 3 Xrotation Yrotation Zrotation
						End Site
						{
							OFFSET 0.000000 6.393857 19.387894
						}
					}
				}
				JOINT RightShoulder
				{
					OFFSET -4.347950 0.605420 11.151199
					CHANNELS 3 Xrotation Yrotation Zrotation
					JOINT RightArm
					{
						OFFSET 0.000000 -0.000003 14.625793
						CHANNELS 3 Xrotation Yrotation Zrotation
						JOINT RightArmRoll
						{
							OFFSET 0.000000 -0.000001 7.383392
							CHANNELS 3 Xrotation Yrotation Zrotation
							JOINT RightForeArm
							{
								OFFSET 0.000000 -0.000004 21.505203
								CHANNELS 3 Xrotation Yrotation Zrotation
								JOINT RightForeArmRoll
								{
									OFFSET 0.000000 -0.000001 8.285324
									CHANNELS 3 Xrotation Yrotation Zrotation
									JOINT RightHand
									{
										OFFSET 0.000000 -0.000003 16.626801
										CHANNELS 3 Xrotation Yrotation Zrotation
										End Site
										{
											OFFSET 0.000000 0.000000 0.100006
										}
									}
								}
							}
						}
					}
				}
				JOINT LeftShoulder
				{
					OFFSET 4.347950 0.605420 11.151199
					CHANNELS 3 Xrotation Yrotation Zrotation
					JOINT LeftArm
					{
						OFFSET 0.000000 -0.000003 14.625793
						CHANNELS 3 Xrotation Yrotation Zrotation
						JOINT LeftArmRoll
						{
							OFFSET 0.000000 -0.000001 7.383392
							CHANNELS 3 Xrotation Yrotation Zrotation
							JOINT LeftForeArm
							{
								OFFSET 0.000000 -0.000004 21.505203
								CHANNELS 3 Xrotation Yrotation Zrotation
								JOINT LeftForeArmRoll
								{
									OFFSET 0.000000 -0.000001 8.285324
									CHANNELS 3 Xrotation Yrotation Zrotation
									JOINT LeftHand
									{
										OFFSET 0.000000 -0.000003 16.626801
										CHANNELS 3 Xrotation Yrotation Zrotation
										End Site
										{
											OFFSET 0.000000 0.000000 0.100006
										}
									}
								}
							}
						}
					}
				}
			}
		}
	}
	JOINT RightUpLeg
	{
		OFFSET -7.815102 1.202170 -1.433090
		CHANNELS 3 Xrotation Yrotation Zrotation
		JOINT RightUpLegRoll
		{
			OFFSET 0.000000 -0.000003 19.495903
			CHANNELS 3 Xrotation Yrotation Zrotation
			JOINT RightLeg
			{
				OFFSET 0.000000 0.000004 -24.142700
				CHANNELS 3 Xrotation Yrotation Zrotation
				JOINT RightLegRoll
				{
					OFFSET 0.000000 -0.000004 24.221703
					CHANNELS 3 Xrotation Yrotation Zrotation
					JOINT RightFoot
					{
						OFFSET 0.000000 -0.000004 20.160500
						CHANNELS 3 Xrotation Yrotation Zrotation
						JOINT RightToeBase
						{
							OFFSET 0.000000 -0.000003 16.853195
							CHANNELS 3 Xrotation Yrotation Zrotation
							End Site
							{
								OFFSET 0.007145 0.940779 8.161865
							}
						}
					}
				}
			}
		}
	}
	JOINT LeftUpLeg
	{
		OFFSET 7.815102 1.202170 -1.433090
		CHANNELS 3 Xrotation Yrotation Zrotation
		JOINT LeftUpLegRoll
		{
			OFFSET 0.000000 -0.000003 19.496002
			CHANNELS 3 Xrotation Yrotation Zrotation
			JOINT LeftLeg
			{
				OFFSET 0.000000 -0.000004 24.142601
				CHANNELS 3 Xrotation Yrotation Zrotation
				JOINT LeftLegRoll
				{
					OFFSET 0.000000 -0.000005 24.445602
					CHANNELS 3 Xrotation Yrotation Zrotation
					JOINT LeftFoot
					{
						OFFSET 0.000000 -0.000003 19.936600
						CHANNELS 3 Xrotation Yrotation Zrotation
						JOINT LeftToeBase
						{
							OFFSET 0.000000 -0.000003 16.853195
							CHANNELS 3 Xrotation Yrotation Zrotation
							End Site
							{
								OFFSET -0.032013 0.940779 8.161865
							}
						}
					}
				}
			}
		}
	}
}
MOTION
Frames: 4
Frame Time: 0.041667
50.126202 -10.844216 100.550003 -2.360029 0.598898 1.974172 -1.878888 -0.144177 -0.096746 0.244803 -0.285421 -0.196703 1.889883 -0.288156 -0.193352 26.222138 1.520264 1.740908 4.105505 5.389885 1.125315 -7.884955 -68.959755 -10.035967 -51.144760 -113.564777 -35.987894 0.000001 -0.000001 -0.000002 1.663220 -13.525708 -0.014284 0.000005 0.000014 -3.007671 -5.000212 -7.998752 0.000154 -9.034286 60.254467 10.773491 -30.327703 114.109006 24.051210 0.000001 -0.000000 0.000001 7.774171 12.101099 -0.340120 -0.000000 -0.000002 3.011520 -5.000200 7.998713 -0.000148 1.414455 -178.340501 -0.318227 -179.999991 0.000005 -1.092993 174.873292 -1.524874 -0.400777 -0.000002 0.000001 0.026587 68.524665 6.898907 2.143693 25.456964 -7.355618 -0.000000 -0.014322 176.591003 1.775972 -0.000005 -0.000004 -1.121720 -8.694618 2.354686 0.526444 -0.000004 -0.000001 -0.142368 70.251077 -6.878253 -2.081988 25.679320 7.354374 -0.336036 
50.125702 -10.843716 100.552002 -2.349462 0.599696 1.970275 -1.883177 -0.144123 -0.099396 0.236211 -0.285047 -0.202010 1.881294 -0.287785 -0.198662 26.250510 1.524791 1.744551 4.088070 5.395188 1.129794 -7.842311 -68.973211 -9.989236 -51.128716 -113.518625 -35.938386 -0.000000 -0.000001 -0.000002 1.736076 -13.499129 -0.009189 0.000002 0.000013 -3.007670 -5.000210 -7.998749 0.000154 -9.051866 60.277314 10.795462 -30.174236 114.040192 23.809503 0.000001 0.000001 0.000001 7.902862 12.030355 -0.343292 0.000002 -0.000003 3.011519 -5.000197 7.998711 -0.000148 1.402731 -178.340488 -0.320394 -179.999991 0.000005 -1.092993 174.871721 -1.523877 -0.400730 -0.000003 0.000001 0.026587 68.524549 6.898900 2.143701 25.456962 -7.355618 0.000000 -0.026557 176.592000 1.778338 -0.000005 -0.000004 -1.121720 -8.695717 2.354146 0.526443 -0.000004 -0.000001 -0.142368 70.249903 -6.878229 -2.081956 25.678612 7.354372 -0.334974 
50.128300 -10.842615 100.567001 -2.338119 0.600443 1.966646 -1.887777 -0.144042 -0.102208 0.227013 -0.284596 -0.207643 1.872094 -0.287339 -0.204299 26.281284 1.529257 1.748469 4.069247 5.400990 1.134552 -7.796905 -68.987882 -9.939500 -51.116098 -113.472576 -35.892402 -0.000001 0.000000 -0.000000 1.804231 -13.473161 -0.004615 0.000005 0.000014 -3.007668 -5.000209 -7.998752 0.000154 -9.069119 60.301288 10.817128 -30.022626 113.970982 23.570877 0.000001 0.000000 0.000000 8.029390 11.960941 -0.345928 -0.000001 -0.000003 3.011518 -5.000199 7.998713 -0.000149 1.390106 -178.340488 -0.322630 -179.999991 0.000005 -1.092993 174.870000 -1.521887 -0.400597 -0.000002 0.000001 0.026587 68.524447 6.898894 2.143704 25.456962 -7.355618 -0.000000 -0.039813 176.593995 1.781076 -0.000005 -0.000005 -1.121720 -8.696693 2.353448 0.526445 -0.000004 -0.000001 -0.142368 70.248420 -6.878233 -2.081948 25.677700 7.354374 -0.333772 
50.133701 -10.842016 100.561996 -2.326247 0.601154 1.963200 -1.892587 -0.143941 -0.105134 0.217389 -0.284093 -0.213503 1.862474 -0.286841 -0.210164 26.313857 1.533687 1.752568 4.049439 5.407136 1.139522 -7.749498 -69.003345 -9.887606 -51.104773 -113.427142 -35.847691 0.000001 -0.000001 -0.000000 1.869104 -13.447600 -0.000416 0.000002 0.000015 -3.007670 -5.000211 -7.998751 0.000155 -9.086216 60.326287 10.838650 -29.871528 113.902174 23.333507 0.000001 -0.000001 0.000000 8.154376 11.892346 -0.348093 -0.000000 -0.000002 3.011519 -5.000198 7.998712 -0.000149 1.376852 -178.340474 -0.324916 -179.999991 0.000005 -1.092993 174.868238 -1.520889 -0.400555 -0.000002 0.000001 0.026587 68.524235 6.898880 2.143815 25.456962 -7.355619 0.000000 -0.053784 176.596003 1.784063 -0.000005 -0.000005 -1.121720 -8.697588 2.352612 0.526445 -0.000004 -0.000001 -0.142368 70.246727 -6.878231 -2.081953 25.676793 7.354374 -0.332479 
